Fly_normalized_Motion_pl16
version=1
nRows=25
nColumns=43
inDegrees=yes
endheader
time		pelvis_tilt		pelvis_list		pelvis_rotation		pelvis_tx		pelvis_ty		pelvis_tz		hip_flexion_r		hip_adduction_r		hip_rotation_r		knee_angle_r		ankle_angle_r		subtalar_angle_r		mtp_angle_r		hip_flexion_l		hip_adduction_l		hip_rotation_l		knee_angle_l		ankle_angle_l		subtalar_angle_l		mtp_angle_l		lumbar_extension		lumbar_bending		lumbar_rotation		neck_flexion		neck_lateral_bending		neck_rotation		arm_flex_r		arm_add_r		arm_rot_r		elbow_flex_r		pro_sup_r		wrist_flex_r		wrist_dev_r		hand_finger_flex_r		arm_flex_l		arm_add_l		arm_rot_l		elbow_flex_l		pro_sup_l		wrist_flex_l		wrist_dev_l		hand_finger_flex_l		
0.912500		2.282374		-6.572155		89.322632		-0.006085		1.628187		0.961185		42.092445		2.268422		-3.703897		-35.143201		-17.752217		-3.729385		18.900164		42.344225		-8.434396		-9.957677		-35.992100		-20.023293		6.459685		24.097075		-42.180768		3.106684		-1.820406		3.787617		-4.870233		6.546905		-8.208654		-27.580562		5.332495		46.314880		109.694914		1.846252		4.338982		22.653645		-9.238513		-28.526213		2.800627		56.610294		104.988050		-7.462715		-3.649043		18.711710		
0.917045		2.318541		-6.008924		89.374559		-0.006501		1.614328		0.951298		41.244809		2.234295		-3.761758		-34.738385		-17.877478		-3.479119		18.854088		41.496085		-8.468044		-9.975258		-35.556301		-20.267322		6.681132		24.060592		-41.918903		3.193784		-1.898400		1.982734		-4.827133		6.581001		-10.796473		-27.727846		4.651422		46.168988		109.176555		1.588066		4.178248		22.392854		-11.955727		-28.255425		2.126241		56.281961		104.615031		-7.462611		-4.179616		18.342069		
0.921591		2.345628		-5.596090		89.393135		-0.006897		1.600095		0.941492		40.514983		2.224685		-3.756050		-34.222255		-18.004099		-3.223058		18.798990		40.739178		-8.494294		-9.998191		-34.985049		-20.479506		6.857022		24.023131		-41.514874		3.259991		-1.993649		0.349663		-4.815662		6.606867		-13.347877		-27.926072		4.100448		46.136069		108.811410		1.418601		4.095417		22.208222		-14.713151		-28.082241		1.623723		56.093462		104.234196		-7.431376		-4.634986		18.027908		
0.926136		2.338219		-5.222462		89.361651		-0.007371		1.585596		0.931581		39.836412		2.202708		-3.696383		-33.742861		-18.124767		-2.954346		18.739350		40.007920		-8.504600		-10.053751		-34.435633		-20.735007		7.029961		23.982293		-41.045876		3.281706		-2.095380		-1.316338		-4.800607		6.618182		-15.906998		-28.092628		3.457697		46.171280		108.507400		1.281134		4.055180		22.060982		-17.499686		-27.836542		1.105118		55.936950		103.776705		-7.471359		-5.058905		17.698873		
0.930682		2.274724		-4.877659		89.277961		-0.007795		1.570876		0.921589		39.183113		2.155377		-3.587151		-33.267490		-18.227240		-2.640797		18.678270		39.269449		-8.487410		-10.148775		-33.868060		-21.037767		7.209088		23.936448		-40.538083		3.230018		-2.188773		-2.999687		-4.772586		6.603727		-18.495510		-28.201904		2.668760		46.285510		108.256520		1.197190		4.050518		21.950760		-20.290056		-27.535079		0.564738		55.814066		103.275737		-7.599230		-5.425335		17.318511		
0.935227		2.154358		-4.553276		89.134797		-0.008189		1.555970		0.911539		38.543923		2.067519		-3.449866		-32.794076		-18.297647		-2.256999		18.618021		38.514109		-8.433271		-10.285614		-33.276952		-21.380452		7.385898		23.886135		-40.010913		3.093546		-2.252419		-4.651957		-4.719078		6.548610		-21.105103		-28.228347		1.700828		46.460948		108.055409		1.183882		4.071923		21.885037		-23.042962		-27.186063		0.044079		55.706051		102.804866		-7.845398		-5.661966		16.855982		
0.939773		1.923442		-4.238027		88.920161		-0.008529		1.540942		0.901437		37.889926		1.892085		-3.242217		-32.281195		-18.190736		-1.593218		18.528569		37.666601		-8.310559		-10.615383		-32.554528		-21.742974		7.567055		23.800466		-39.489601		2.821345		-2.193393		-6.173979		-4.673478		6.387167		-23.811727		-27.997410		0.146113		46.664310		108.029489		1.408855		4.267146		21.821978		-25.679814		-26.814575		-0.443959		55.660856		102.366150		-8.218857		-5.664262		15.952910		
0.944318		1.781933		-3.952036		88.784694		-0.008848		1.525628		0.891372		37.278525		1.756086		-3.141131		-31.784530		-18.323505		-1.065137		18.393027		36.930858		-8.216470		-10.754521		-31.947785		-22.067772		7.669887		23.727418		-38.932493		2.652231		-2.134060		-7.728034		-4.597711		6.249328		-26.515589		-27.846228		-1.157409		46.992269		108.004418		1.662452		4.205646		21.789613		-28.327908		-26.571171		-0.762360		55.750136		102.131995		-8.493650		-5.677607		15.179598		
0.948864		1.681670		-3.693583		88.675777		-0.009219		1.510081		0.881265		36.698221		1.628722		-3.109139		-31.301128		-18.553739		-0.537880		18.239373		36.251663		-8.142863		-10.846470		-31.410303		-22.376639		7.777613		23.661548		-38.343917		2.536953		-2.042968		-9.267904		-4.494701		6.112329		-29.216818		-27.656716		-2.495643		47.349235		107.901973		1.921746		4.076858		21.754283		-30.977317		-26.314655		-1.095009		55.921281		101.941877		-8.678341		-5.760352		14.471776		
0.953409		1.617906		-3.460880		88.594134		-0.009557		1.494290		0.871195		36.146558		1.525440		-3.115378		-30.808171		-18.950418		-0.072226		18.093851		35.632796		-8.091698		-10.879963		-30.926860		-22.655811		7.896887		23.615133		-37.729125		2.452872		-1.974713		-10.788620		-4.385710		6.015360		-31.875461		-27.502759		-3.644210		47.765805		107.705977		2.104017		3.873197		21.733909		-33.686593		-26.104664		-1.404657		56.248122		101.768547		-8.761663		-5.964161		13.992012		
0.957955		1.569749		-3.273451		88.484228		-0.009868		1.478251		0.861086		35.631424		1.438322		-3.164542		-30.287661		-19.435229		0.410462		17.973455		35.049023		-8.085159		-10.944636		-30.447384		-22.933856		8.105295		23.585332		-37.058050		2.373083		-1.864960		-12.347807		-4.259872		5.900428		-34.542571		-27.256504		-4.925957		48.211226		107.344385		2.198361		3.648683		21.711517		-36.411957		-25.815186		-1.832419		56.640013		101.563970		-8.811696		-6.220745		13.660066		
0.962500		1.508784		-3.114965		88.352824		-0.010107		1.461974		0.851029		35.172393		1.348989		-3.200049		-29.799293		-20.007226		0.901121		17.842832		34.499643		-8.079949		-11.050435		-29.985014		-23.155722		8.395135		23.559884		-36.375544		2.275519		-1.713189		-13.784427		-4.195871		5.747088		-37.194816		-26.945276		-6.236027		48.738222		107.082504		2.363102		3.490803		21.648366		-39.123813		-25.594137		-2.187853		57.131285		101.442598		-8.690731		-6.456057		13.335253		
0.967045		1.445140		-3.010082		88.197035		-0.010155		1.445444		0.841030		34.763614		1.284691		-3.299687		-29.257019		-20.647919		1.297647		17.720327		33.966481		-8.101014		-11.196421		-29.442767		-23.344141		8.751706		23.548835		-35.641315		2.148274		-1.562931		-15.204079		-4.164584		5.603246		-39.818461		-26.596665		-7.476915		49.361684		106.848454		2.430457		3.316716		21.511121		-41.863309		-25.358872		-2.597806		57.686418		101.388801		-8.554045		-6.683748		13.071344		
0.971591		1.368290		-2.848775		88.006534		-0.010542		1.428790		0.830960		34.366766		1.167443		-3.505448		-28.844858		-21.376156		1.634013		17.603699		33.426257		-8.099031		-11.330245		-29.032419		-23.582649		9.120616		23.552104		-34.949996		2.041659		-1.435727		-16.769914		-4.070312		5.483928		-42.449868		-26.328399		-8.646806		50.101493		106.545391		2.313088		3.074855		21.353749		-44.613428		-24.986980		-3.034953		58.269571		101.354976		-8.501485		-6.944473		12.927814		
0.976136		1.298281		-2.723236		87.857879		-0.010865		1.411907		0.820944		33.973158		1.048352		-3.733223		-28.365597		-21.995583		1.984323		17.500982		32.906871		-8.082276		-11.443140		-28.560243		-23.787112		9.487532		23.567977		-34.238608		1.955440		-1.277993		-18.207997		-4.023693		5.365866		-45.053407		-26.011162		-9.753492		50.865273		106.290612		2.190720		2.873294		21.159817		-47.341493		-24.669366		-3.457882		58.953620		101.402186		-8.346268		-7.244003		12.873640		
0.980682		1.226783		-2.601925		87.744080		-0.011159		1.394832		0.810907		33.544813		0.902102		-3.952452		-27.857276		-22.487986		2.411810		17.413148		32.394870		-8.045117		-11.495343		-28.067110		-23.995371		9.830858		23.595000		-33.529895		1.885890		-1.122311		-19.615033		-3.968827		5.262371		-47.612585		-25.641052		-10.815800		51.655592		106.053116		2.062922		2.663872		20.955578		-50.063853		-24.352395		-3.927906		59.682811		101.459841		-8.114905		-7.628210		12.936987		
0.985227		1.148437		-2.465305		87.653402		-0.011504		1.377586		0.800766		33.089576		0.721528		-4.117218		-27.369311		-22.857188		2.991744		17.341091		31.874715		-7.981943		-11.502978		-27.587642		-24.216718		10.172960		23.634792		-32.829623		1.822394		-0.967212		-21.038174		-3.895207		5.155951		-50.123717		-25.212168		-11.906565		52.444058		105.827751		1.954625		2.455375		20.748305		-52.774698		-23.999542		-4.503851		60.450074		101.504807		-7.802551		-8.115199		13.137403		
0.989773		1.038674		-2.379499		87.562588		-0.011689		1.360093		0.790691		32.658822		0.511066		-4.271305		-26.843608		-22.979357		3.979913		17.291170		31.342121		-7.899355		-11.625987		-27.006333		-24.397218		10.626064		23.736335		-32.105241		1.733778		-0.754669		-22.410813		-3.871913		4.952159		-52.516686		-24.522626		-13.261890		53.159404		105.749942		2.014487		2.411248		20.392515		-55.396783		-23.514166		-5.428898		61.135396		101.743647		-7.177153		-8.701199		13.705777		
0.994318		0.960189		-2.194848		87.458213		-0.011958		1.342498		0.780771		32.234411		0.349043		-4.353833		-26.470334		-23.453092		4.461040		17.203773		30.815744		-7.835329		-11.608911		-26.617324		-24.611034		10.816999		23.798953		-31.522848		1.657223		-0.615789		-23.751898		-3.824378		4.884116		-54.778580		-24.122170		-14.143205		53.903306		105.638144		2.047230		2.140655		20.219663		-58.107186		-23.112096		-6.088331		62.025611		101.754212		-7.011615		-9.278265		14.017843		
0.998864		0.867736		-2.075221		87.266882		-0.011884		1.324699		0.770824		31.891237		0.208407		-4.544761		-26.090027		-23.813749		5.217575		17.210088		30.290093		-7.851927		-11.861288		-26.138815		-24.803164		11.187781		24.053280		-30.897142		1.512997		-0.367038		-25.014448		-3.874418		4.651556		-56.846600		-23.359102		-15.563763		54.567980		106.010112		2.502188		2.126076		19.568739		-60.679320		-22.485390		-7.286011		62.750452		102.295183		-6.447527		-9.840500		15.115997		
1.003409		0.853836		-1.958478		87.113049		-0.012077		1.306841		0.761055		31.554603		0.132416		-4.904501		-25.672490		-24.387675		5.347361		17.177890		29.827097		-7.892656		-11.942982		-25.737105		-25.050742		11.242901		24.112676		-30.326063		1.473491		-0.203952		-26.231715		-3.841410		4.549248		-58.693178		-22.867758		-16.453175		55.065245		105.876564		2.362155		1.845362		19.379233		-63.176383		-21.897674		-7.987280		63.483690		102.098984		-6.572596		-10.288048		15.284369		
1.007955		0.855070		-1.824436		87.018854		-0.011969		1.288815		0.751326		31.236597		0.058695		-5.338295		-25.346290		-24.965481		5.524289		17.215063		29.403382		-7.986541		-12.116921		-25.417381		-25.376661		11.321360		24.174238		-29.786219		1.438015		-0.027709		-27.556339		-3.818155		4.382319		-60.423148		-22.159316		-17.497514		55.589802		105.841160		2.181916		1.664951		19.181008		-65.570997		-21.260651		-8.954542		64.138836		101.867517		-6.594053		-10.665717		15.522477		
1.012500		0.847542		-1.769702		86.869624		-0.012212		1.270522		0.741851		30.922698		-0.019307		-5.708699		-24.869418		-25.307262		5.680315		17.353354		29.028469		-8.040301		-12.243340		-25.010581		-25.657808		11.372116		24.261770		-29.243711		1.416143		0.104299		-28.470254		-3.885459		4.234764		-61.830769		-21.564354		-18.543119		55.939397		106.038674		2.088471		1.617159		18.953068		-67.808940		-20.575042		-9.739942		64.787766		101.780946		-6.412843		-10.922646		15.889927		
1.017045		0.717189		-1.471439		86.801795		-0.012389		1.252428		0.732254		30.423910		-0.305320		-6.019415		-24.639019		-25.504668		6.348995		17.975710		28.463492		-7.974667		-12.539892		-24.749707		-26.158697		11.327236		24.575331		-28.925195		1.269523		0.166582		-29.775112		-3.819998		4.087774		-63.158711		-20.482292		-20.426532		56.564004		107.543798		2.472427		1.715506		18.510699		-69.962631		-19.493395		-11.508466		65.474194		102.236248		-5.776640		-10.837701		16.940221		
1.021591		0.688412		-1.304277		86.760285		-0.012715		1.233918		0.722966		30.000770		-0.444909		-6.118705		-24.292163		-25.678119		6.556732		18.131135		28.068018		-7.968960		-12.691064		-24.521233		-26.315577		11.262203		24.682004		-28.530810		1.252024		0.145068		-30.764600		-3.873740		4.051203		-64.291014		-19.868011		-21.567293		56.992063		107.768340		2.355330		1.465837		18.314939		-72.022575		-18.657282		-12.498555		66.094222		102.155036		-5.926991		-11.138886		17.130837		
